REM DIRINDEX 1\6,1\2\7,1\2\8,1\2\9,1\3\10,1\3\11,1\4\12,1\4\13,1\4\14,1\5\15,1\5\16,1\5\17
REM DIRNAME folder01,folder02,folder03,folder04,folder05,folder06,folder07,folder08,folder09,folder10,folder11,folder12,folder13,folder14,folder15,folder16,folder17
TITLE ""
FILE "3Q_t2_0504-0519.mp3" MP3
  TRACK 01 AUDIO
    TITLE "7:cjc041_4927"
    INDEX 01 00:00:00
  TRACK 02 AUDIO
    TITLE "0:"
    INDEX 01 00:01:01
  TRACK 03 AUDIO
    TITLE "8:cjc041_4928"
    INDEX 01 00:01:58
  TRACK 04 AUDIO
    TITLE "0:"
    INDEX 01 00:05:48
  TRACK 05 AUDIO
    TITLE "9:cjc041_4929"
    INDEX 01 00:06:28
  TRACK 06 AUDIO
    TITLE "0:"
    INDEX 01 00:07:35
  TRACK 07 AUDIO
    TITLE "7:cjc041_4930"
    INDEX 01 00:09:18
  TRACK 08 AUDIO
    TITLE "0:"
    INDEX 01 00:10:33
  TRACK 09 AUDIO
    TITLE "8:cjc041_4931"
    INDEX 01 00:11:07
  TRACK 10 AUDIO
    TITLE "0:"
    INDEX 01 00:13:55
  TRACK 11 AUDIO
    TITLE "9:cjc041_4932"
    INDEX 01 00:14:31
  TRACK 12 AUDIO
    TITLE "0:"
    INDEX 01 00:15:46
  TRACK 13 AUDIO
    TITLE "7:cjc041_4933"
    INDEX 01 00:17:29
  TRACK 14 AUDIO
    TITLE "0:"
    INDEX 01 00:18:44
  TRACK 15 AUDIO
    TITLE "8:cjc041_4934"
    INDEX 01 00:19:24
  TRACK 16 AUDIO
    TITLE "0:"
    INDEX 01 00:20:28
  TRACK 17 AUDIO
    TITLE "9:cjc041_4935"
    INDEX 01 00:21:08
  TRACK 18 AUDIO
    TITLE "0:"
    INDEX 01 00:22:21
  TRACK 19 AUDIO
    TITLE "7:cjc041_4936"
    INDEX 01 00:24:02
  TRACK 20 AUDIO
    TITLE "0:"
    INDEX 01 00:25:13
  TRACK 21 AUDIO
    TITLE "8:cjc041_4937"
    INDEX 01 00:25:66
  TRACK 22 AUDIO
    TITLE "0:"
    INDEX 01 00:27:06
  TRACK 23 AUDIO
    TITLE "9:cjc041_4938"
    INDEX 01 00:27:61
  TRACK 24 AUDIO
    TITLE "0:"
    INDEX 01 00:28:74
  TRACK 25 AUDIO
    TITLE "7:cjc041_4939"
    INDEX 01 00:30:54
  TRACK 26 AUDIO
    TITLE "0:"
    INDEX 01 00:31:69
  TRACK 27 AUDIO
    TITLE "8:cjc041_4940"
    INDEX 01 00:32:43
  TRACK 28 AUDIO
    TITLE "0:"
    INDEX 01 00:34:67
  TRACK 29 AUDIO
    TITLE "9:cjc041_4941"
    INDEX 01 00:35:45
  TRACK 30 AUDIO
    TITLE "0:"
    INDEX 01 00:36:66
  TRACK 31 AUDIO
    TITLE "7:cjc041_4942"
    INDEX 01 00:38:45
  TRACK 32 AUDIO
    TITLE "0:"
    INDEX 01 00:39:72
  TRACK 33 AUDIO
    TITLE "8:cjc041_4943"
    INDEX 01 00:40:52
  TRACK 34 AUDIO
    TITLE "0:"
    INDEX 01 00:41:55
  TRACK 35 AUDIO
    TITLE "9:cjc041_4944"
    INDEX 01 00:42:29
  TRACK 36 AUDIO
    TITLE "0:"
    INDEX 01 00:43:58
  TRACK 37 AUDIO
    TITLE "7:cjc041_4945"
    INDEX 01 00:45:37
  TRACK 38 AUDIO
    TITLE "0:"
    INDEX 01 00:46:62
  TRACK 39 AUDIO
    TITLE "8:cjc041_4946"
    INDEX 01 00:47:42
  TRACK 40 AUDIO
    TITLE "0:"
    INDEX 01 00:48:34
  TRACK 41 AUDIO
    TITLE "9:cjc041_4947"
    INDEX 01 00:49:21
  TRACK 42 AUDIO
    TITLE "0:"
    INDEX 01 00:50:42
  TRACK 43 AUDIO
    TITLE "7:cjc041_4948"
    INDEX 01 00:52:24
  TRACK 44 AUDIO
    TITLE "0:"
    INDEX 01 00:53:25
  TRACK 45 AUDIO
    TITLE "8:cjc041_4949"
    INDEX 01 00:54:05
  TRACK 46 AUDIO
    TITLE "0:"
    INDEX 01 00:56:35
  TRACK 47 AUDIO
    TITLE "9:cjc041_4950"
    INDEX 01 00:57:11
  TRACK 48 AUDIO
    TITLE "0:"
    INDEX 01 00:58:17
  TRACK 49 AUDIO
    TITLE "7:cjc041_4951"
    INDEX 01 00:59:71
  TRACK 50 AUDIO
    TITLE "0:"
    INDEX 01 01:00:68
  TRACK 51 AUDIO
    TITLE "8:cjc041_4952"
    INDEX 01 01:01:48
  TRACK 52 AUDIO
    TITLE "0:"
    INDEX 01 01:02:40
  TRACK 53 AUDIO
    TITLE "9:cjc041_4953"
    INDEX 01 01:03:18
  TRACK 54 AUDIO
    TITLE "0:"
    INDEX 01 01:04:19
  TRACK 55 AUDIO
    TITLE "7:cjc041_4954"
    INDEX 01 01:05:69
  TRACK 56 AUDIO
    TITLE "0:"
    INDEX 01 01:07:04
  TRACK 57 AUDIO
    TITLE "8:cjc041_4955"
    INDEX 01 01:07:63
  TRACK 58 AUDIO
    TITLE "0:"
    INDEX 01 01:08:68
  TRACK 59 AUDIO
    TITLE "9:cjc041_4956"
    INDEX 01 01:09:50
  TRACK 60 AUDIO
    TITLE "0:"
    INDEX 01 01:10:63
  TRACK 61 AUDIO
    TITLE "7:cjc041_4957"
    INDEX 01 01:12:42
  TRACK 62 AUDIO
    TITLE "0:"
    INDEX 01 01:13:65
  TRACK 63 AUDIO
    TITLE "8:cjc041_4958"
    INDEX 01 01:14:37
  TRACK 64 AUDIO
    TITLE "0:"
    INDEX 01 01:15:29
  TRACK 65 AUDIO
    TITLE "9:cjc041_4959"
    INDEX 01 01:16:09
  TRACK 66 AUDIO
    TITLE "0:"
    INDEX 01 01:17:33
  TRACK 67 AUDIO
    TITLE "7:cjc041_4960"
    INDEX 01 01:19:11
  TRACK 68 AUDIO
    TITLE "0:"
    INDEX 01 01:20:16
  TRACK 69 AUDIO
    TITLE "8:cjc041_4961"
    INDEX 01 01:20:69
  TRACK 70 AUDIO
    TITLE "0:"
    INDEX 01 01:22:17
  TRACK 71 AUDIO
    TITLE "9:cjc041_4962"
    INDEX 01 01:22:70
  TRACK 72 AUDIO
    TITLE "0:"
    INDEX 01 01:24:00
  TRACK 73 AUDIO
    TITLE "7:cjc041_4963"
    INDEX 01 01:25:57
  TRACK 74 AUDIO
    TITLE "0:"
    INDEX 01 01:26:66
  TRACK 75 AUDIO
    TITLE "8:cjc041_4964"
    INDEX 01 01:27:38
  TRACK 76 AUDIO
    TITLE "0:"
    INDEX 01 01:28:47
  TRACK 77 AUDIO
    TITLE "9:cjc041_4965"
    INDEX 01 01:29:27
  TRACK 78 AUDIO
    TITLE "0:"
    INDEX 01 01:30:40
  TRACK 79 AUDIO
    TITLE "7:cjc041_4966"
    INDEX 01 01:32:13
  TRACK 80 AUDIO
    TITLE "0:"
    INDEX 01 01:33:23
  TRACK 81 AUDIO
    TITLE "8:cjc041_4967"
    INDEX 01 01:34:01
  TRACK 82 AUDIO
    TITLE "0:"
    INDEX 01 01:34:63
  TRACK 83 AUDIO
    TITLE "9:cjc041_4968"
    INDEX 01 01:35:47
  TRACK 84 AUDIO
    TITLE "0:"
    INDEX 01 01:36:56
  TRACK 85 AUDIO
    TITLE "7:cjc041_4969"
    INDEX 01 01:38:36
  TRACK 86 AUDIO
    TITLE "0:"
    INDEX 01 01:39:64
  TRACK 87 AUDIO
    TITLE "8:cjc041_4970"
    INDEX 01 01:40:38
  TRACK 88 AUDIO
    TITLE "0:"
    INDEX 01 01:43:19
  TRACK 89 AUDIO
    TITLE "9:cjc041_4971"
    INDEX 01 01:43:70
  TRACK 90 AUDIO
    TITLE "0:"
    INDEX 01 01:45:18
  TRACK 91 AUDIO
    TITLE "7:cjc041_4972"
    INDEX 01 01:47:01
  TRACK 92 AUDIO
    TITLE "0:"
    INDEX 01 01:48:30
  TRACK 93 AUDIO
    TITLE "8:cjc041_4973"
    INDEX 01 01:49:14
  TRACK 94 AUDIO
    TITLE "0:"
    INDEX 01 01:50:23
  TRACK 95 AUDIO
    TITLE "9:cjc041_4974"
    INDEX 01 01:50:72
  TRACK 96 AUDIO
    TITLE "0:"
    INDEX 01 01:52:32
